<svg width="411" height="144" viewBox="0 0 411 144" fill="none" xmlns="http://www.w3.org/2000/svg">
<path opacity="0.2" d="M395.5 16.7188C387.073 16.724 378.814 18.6294 371.647 22.222C364.479 25.8145 358.686 30.9525 354.915 37.0613C350.429 36.5309 345.856 36.7556 341.482 37.7212C337.108 38.6868 333.026 40.3727 329.491 42.6736C325.956 44.9746 323.044 47.8414 320.936 51.095C318.828 54.3487 317.57 57.9195 317.24 61.5848C316.91 65.25 317.516 68.931 319.018 72.3982C320.521 75.8654 322.889 79.0444 325.975 81.7369C329.06 84.4295 332.797 86.5778 336.952 88.0478C341.107 89.5179 345.591 90.2782 350.125 90.2812H395.5C407.534 90.2812 419.076 86.4061 427.585 79.5083C436.094 72.6105 440.875 63.255 440.875 53.5C440.875 43.745 436.094 34.3896 427.585 27.4917C419.076 20.5939 407.534 16.7188 395.5 16.7188ZM395.5 83.5938H350.125C343.561 83.5938 337.266 81.48 332.624 77.7176C327.983 73.9551 325.375 68.8522 325.375 63.5312C325.375 58.2103 327.983 53.1074 332.624 49.3449C337.266 45.5825 343.561 43.4688 350.125 43.4688C350.692 43.4688 351.259 43.4688 351.821 43.5147C350.693 46.7643 350.123 50.1242 350.125 53.5C350.125 54.3868 350.56 55.2373 351.333 55.8644C352.107 56.4915 353.156 56.8438 354.25 56.8438C355.344 56.8438 356.393 56.4915 357.167 55.8644C357.94 55.2373 358.375 54.3868 358.375 53.5C358.375 47.548 360.552 41.7297 364.632 36.7808C368.711 31.8319 374.509 27.9747 381.293 25.697C388.077 23.4193 395.541 22.8233 402.743 23.9845C409.944 25.1457 416.559 28.0118 421.751 32.2205C426.943 36.4292 430.479 41.7914 431.912 47.629C433.344 53.4666 432.609 59.5175 429.799 65.0164C426.989 70.5153 422.231 75.2153 416.126 78.522C410.02 81.8288 402.843 83.5938 395.5 83.5938Z" fill="black"/>
<path opacity="0.2" d="M59.5 53.7188C51.0731 53.724 42.8141 55.6294 35.6467 59.222C28.4793 62.8145 22.6862 67.9525 18.9152 74.0613C14.429 73.5309 9.85616 73.7556 5.48185 74.7212C1.10754 75.6868 -2.9744 77.3727 -6.50936 79.6736C-10.0443 81.9746 -12.9565 84.8414 -15.0642 88.095C-17.1719 91.3487 -18.4299 94.9195 -18.7598 98.5848C-19.0897 102.25 -18.4844 105.931 -16.9816 109.398C-15.4788 112.865 -13.1108 116.044 -10.0253 118.737C-6.93981 121.429 -3.20297 123.578 0.95211 125.048C5.10719 126.518 9.59139 127.278 14.125 127.281H59.5C71.5342 127.281 83.0755 123.406 91.585 116.508C100.094 109.61 104.875 100.255 104.875 90.5C104.875 80.745 100.094 71.3896 91.585 64.4917C83.0755 57.5939 71.5342 53.7188 59.5 53.7188ZM59.5 120.594H14.125C7.56089 120.594 1.26563 118.48 -3.3759 114.718C-8.01742 110.955 -10.625 105.852 -10.625 100.531C-10.625 95.2103 -8.01742 90.1074 -3.3759 86.3449C1.26563 82.5825 7.56089 80.4688 14.125 80.4688C14.6922 80.4688 15.2594 80.4688 15.8214 80.5147C14.6933 83.7643 14.1225 87.1242 14.125 90.5C14.125 91.3868 14.5596 92.2373 15.3332 92.8644C16.1068 93.4915 17.156 93.8438 18.25 93.8438C19.344 93.8438 20.3932 93.4915 21.1668 92.8644C21.9404 92.2373 22.375 91.3868 22.375 90.5C22.375 84.548 24.5523 78.7297 28.6317 73.7808C32.711 68.8319 38.5092 64.9747 45.2929 62.697C52.0766 60.4193 59.5412 59.8233 66.7427 60.9845C73.9443 62.1457 80.5593 65.0118 85.7513 69.2205C90.9434 73.4292 94.4792 78.7914 95.9117 84.629C97.3441 90.4666 96.6089 96.5175 93.799 102.016C90.9891 107.515 86.2307 112.215 80.1255 115.522C74.0204 118.829 66.8426 120.594 59.5 120.594Z" fill="black"/>
</svg>
